<svg xmlns="http://www.w3.org/2000/svg" version="1.1" xmlns:xlink="http://www.w3.org/1999/xlink" xmlns:svgjs="http://svgjs.dev/svgjs" width="1000" height="1000" viewBox="0 0 1000 1000"><rect width="1000" height="1000" fill="#0a1627"></rect><g transform="matrix(0.7,0,0,0.7,150.22936040112154,131.04898785425098)"><svg viewBox="0 0 234 247" data-background-color="#0a1627" preserveAspectRatio="xMidYMid meet" height="1055" width="1000" xmlns="http://www.w3.org/2000/svg" xmlns:xlink="http://www.w3.org/1999/xlink"><g id="tight-bounds" transform="matrix(1,0,0,1,-0.07667157808958791,-0.09999999999999432)"><svg viewBox="0 0 234.15333333333334 247.2" height="247.2" width="234.15333333333334"><g><svg viewBox="0 0 234.15333333333334 247.2" height="247.2" width="234.15333333333334"><g><svg viewBox="0 0 234.15333333333334 247.2" height="247.2" width="234.15333333333334"><g><svg viewBox="0 0 234.15333333333334 247.2" height="247.2" width="234.15333333333334"><g><svg viewBox="0 0 234.15333333333334 247.2" height="247.2" width="234.15333333333334"><g transform="matrix(1,0,0,1,0,0)"><svg width="234.15333333333334" viewBox="0.9500000476837158 -36 34.099998474121094 36" height="247.2" data-palette-color="#fe0039"><path d="M26.05-36L35.05-36 28.75 0 19.7 0 13.4-19.7 10 0 0.95 0 7.3-36 16.6-36 22.8-17.6 26.05-36Z" opacity="1" transform="matrix(1,0,0,1,0,0)" fill="#fe0039" class="undefined-text-0" data-fill-palette-color="primary" id="text-0"></path></svg></g></svg></g></svg></g></svg></g><g></g></svg></g><defs></defs></svg><rect width="234.15333333333334" height="247.2" fill="none" stroke="none" visibility="hidden"></rect></g></svg></g></svg>